<svg width="836" height="160" viewBox="0 0 836 160" fill="none" xmlns="http://www.w3.org/2000/svg">
<g clip-path="url(#clip0_108_467)">
<path d="M220.935 8.53333C224.003 8.53333 226.491 11.0206 226.491 14.0889V58.8182C226.491 64.0231 233.006 66.3703 236.326 62.3611L279.224 10.546C280.28 9.27119 281.849 8.53333 283.504 8.53333H301.087C305.788 8.53333 308.364 14.0071 305.368 17.6294L264.42 67.1442C262.914 68.9659 262.725 71.5415 263.95 73.5634L309.914 149.432C312.157 153.135 309.492 157.867 305.163 157.867H287.861C285.918 157.867 284.116 156.851 283.109 155.19L248.449 97.9738C246.472 94.7092 241.867 94.3652 239.426 97.2998L227.775 111.309C226.945 112.307 226.491 113.564 226.491 114.862V152.311C226.491 155.379 224.003 157.867 220.935 157.867H205.38C202.311 157.867 199.824 155.379 199.824 152.311V14.0889C199.824 11.0206 202.311 8.53333 205.38 8.53333H220.935Z" fill="#AC86F9"/>
<path d="M351.662 107.307C348.348 107.307 345.739 110.206 346.461 113.44C349.868 128.703 359.129 137.6 372.754 137.6C380.697 137.6 387.326 134.533 390.827 129.366C392.149 127.416 394.169 125.867 396.525 125.867H410.22C413.699 125.867 416.342 129.05 415.171 132.325C409.147 149.167 392.897 160 372.754 160C341.821 160 319.847 134.827 319.847 99.6267C319.847 65.0667 340.967 40.5333 370.407 40.5333C399.207 40.5333 419.047 63.7867 419.047 97.7067V101.751C419.047 104.819 416.56 107.307 413.492 107.307H351.662ZM370.407 62.2933C359.865 62.2933 351.801 69.107 347.798 80.7552C346.664 84.0537 349.322 87.2533 352.81 87.2533H387.403C390.655 87.2533 393.261 84.4471 392.476 81.2903C389.566 69.5814 381.254 62.2933 370.407 62.2933Z" fill="#AC86F9"/>
<path d="M458.431 152.311C458.431 155.379 455.943 157.867 452.875 157.867H438.386C435.318 157.867 432.831 155.379 432.831 152.311V48.2222C432.831 45.154 435.318 42.6667 438.386 42.6667H451.809C454.877 42.6667 457.364 45.154 457.364 48.2222V57.6906C457.364 57.994 457.61 58.24 457.914 58.24C458.103 58.24 458.279 58.1417 458.38 57.9822C465.21 47.2623 475.599 41.1733 488.297 41.1733C505.138 41.1733 517.515 51.6452 521.425 68.5851C522.167 71.7966 519.562 74.6667 516.266 74.6667H500.315C497.766 74.6667 495.646 72.854 494.331 70.6701C491.649 66.2163 486.662 63.5733 480.617 63.5733C467.604 63.5733 458.431 75.7333 458.431 93.44V152.311Z" fill="#AC86F9"/>
<path d="M540.276 157.867C537.208 157.867 534.721 155.379 534.721 152.311V48.2222C534.721 45.154 537.208 42.6667 540.276 42.6667H553.699C556.767 42.6667 559.254 45.154 559.254 48.2222V57.2791C559.254 57.5741 559.493 57.8133 559.788 57.8133C559.985 57.8133 560.166 57.7041 560.26 57.5318C566.255 46.6154 576.433 40.5333 589.547 40.5333C610.667 40.5333 624.321 56.1067 624.321 80V152.311C624.321 155.379 621.833 157.867 618.765 157.867H604.276C601.208 157.867 598.721 155.379 598.721 152.311V82.1333C598.721 69.5467 592.534 61.8667 582.294 61.8667C569.494 61.8667 560.321 73.8133 560.321 90.6667V152.311C560.321 155.379 557.833 157.867 554.765 157.867H540.276Z" fill="#AC86F9"/>
<path d="M674.612 107.307C671.298 107.307 668.689 110.206 669.411 113.44C672.818 128.703 682.079 137.6 695.704 137.6C703.647 137.6 710.275 134.533 713.777 129.366C715.099 127.416 717.119 125.867 719.475 125.867H733.17C736.649 125.867 739.292 129.05 738.121 132.325C732.097 149.167 715.847 160 695.704 160C664.771 160 642.797 134.827 642.797 99.6267C642.797 65.0667 663.917 40.5333 693.357 40.5333C722.157 40.5333 741.997 63.7867 741.997 97.7067V101.751C741.997 104.819 739.51 107.307 736.442 107.307H674.612ZM693.357 62.2933C682.815 62.2933 674.751 69.107 670.748 80.7552C669.614 84.0537 672.272 87.2533 675.76 87.2533H710.353C713.605 87.2533 716.211 84.4471 715.426 81.2903C712.516 69.5814 704.204 62.2933 693.357 62.2933Z" fill="#AC86F9"/>
<path d="M794.607 116.693C794.607 131.2 801.434 138.24 815.514 138.24C818.901 138.24 822.426 137.828 825.971 136.966C829.885 136.015 834.074 138.737 834.074 142.765V151.982C834.074 154.14 832.834 156.133 830.802 156.86C824.953 158.953 817.93 160 810.607 160C783.301 160 769.007 145.067 769.007 116.693V29.0222C769.007 25.954 766.52 23.4667 763.452 23.4667H741.496C738.428 23.4667 735.941 20.9794 735.941 17.9111V5.55556C735.941 2.48731 738.428 0 741.496 0H789.052C792.12 0 794.607 2.48731 794.607 5.55556V116.693Z" fill="#AC86F9"/>
<path d="M84.9015 13.221L75.0579 13.2434C64.2573 13.2679 55.5215 22.0578 55.5461 32.8761L55.5684 42.7359C55.5727 44.6401 52.0944 47.1902 50.2851 46.6059L40.9164 43.5803C30.6368 40.2606 19.6169 45.9164 16.3026 56.2128L13.282 65.5969C9.96775 75.8934 15.6142 86.9314 25.8938 90.2511L35.2625 93.2767C37.0722 93.8611 38.4259 97.9539 37.3117 99.4973L31.5438 107.487C25.2152 116.254 27.18 128.499 35.9323 134.838L43.9091 140.616C52.6613 146.955 64.8868 144.987 71.2154 136.22L76.9832 128.23C83.3118 119.464 81.3471 107.218 72.5948 100.879L64.618 95.1016C61.8972 93.131 58.846 83.845 59.8763 80.6442L62.8969 71.2601C63.9259 68.063 71.8153 62.2874 75.1689 62.2798C75.1689 62.2798 81.2809 61.3325 85.0126 62.2574C90.772 63.685 96.2787 67.9769 97.3239 71.1745L100.387 80.5448C103.748 90.8261 114.793 96.4317 125.058 93.0653L134.413 89.9972C144.677 86.6308 150.273 75.5672 146.913 65.2859L143.85 55.9156C140.489 45.6344 129.443 40.0288 119.179 43.3952L109.824 46.4633C108.015 47.0565 104.529 44.5309 104.524 42.6247L104.502 32.7649C104.478 21.9465 95.7021 13.1965 84.9015 13.221Z" fill="#AC86F9"/>
<path d="M94.5555 115.668C94.5555 110.758 98.5352 106.779 103.444 106.779H125.667C130.576 106.779 134.555 110.758 134.555 115.668V137.89C134.555 142.799 130.576 146.779 125.667 146.779H103.444C98.5352 146.779 94.5555 142.799 94.5555 137.89V115.668Z" fill="#AC86F9"/>
</g>
<defs>
<clipPath id="clip0_108_467">
<rect width="835.556" height="160" fill="white" transform="translate(0.111084)"/>
</clipPath>
</defs>
</svg>
