<svg width="160" height="160" viewBox="0 0 160 160" fill="none" xmlns="http://www.w3.org/2000/svg">
<path d="M84.7905 13.2211L74.9468 13.2435C64.1463 13.268 55.4105 22.0579 55.435 32.8763L55.4574 42.736C55.4617 44.6402 51.9834 47.1903 50.1741 46.606L40.8053 43.5805C30.5258 40.2608 19.5058 45.9165 16.1916 56.2129L13.171 65.5971C9.85673 75.8935 15.5032 86.9316 25.7827 90.2513L35.1515 93.2768C36.9612 93.8613 38.3148 97.954 37.2007 99.4974L31.4328 107.487C25.1042 116.254 27.069 128.499 35.8212 134.838L43.798 140.616C52.5503 146.955 64.7757 144.987 71.1043 136.22L76.8722 128.23C83.2008 119.464 81.236 107.218 72.4838 100.879L64.507 95.1018C61.7862 93.1312 58.7349 83.8452 59.7652 80.6443L62.7858 71.2602C63.8149 68.0632 71.7043 62.2875 75.0579 62.2799C75.0579 62.2799 81.1699 61.3326 84.9015 62.2575C90.661 63.6851 96.1677 67.9771 97.2129 71.1746L100.276 80.5449C103.637 90.8262 114.682 96.4318 124.947 93.0654L134.302 89.9973C144.566 86.6309 150.162 75.5673 146.802 65.286L143.739 55.9157C140.378 45.6345 129.332 40.0289 119.068 43.3953L109.713 46.4634C107.904 47.0566 104.418 44.5311 104.413 42.6248L104.391 32.765C104.367 21.9467 95.591 13.1966 84.7905 13.2211Z" fill="#AC86F9"/>
<path d="M94.4445 115.668C94.4445 110.759 98.4241 106.779 103.333 106.779H125.556C130.465 106.779 134.444 110.759 134.444 115.668V137.89C134.444 142.799 130.465 146.779 125.556 146.779H103.333C98.4241 146.779 94.4445 142.799 94.4445 137.89V115.668Z" fill="#AC86F9"/>
</svg>
